<svg width="16" height="15" viewBox="0 0 16 15" fill="none" xmlns="http://www.w3.org/2000/svg">
<g id="Union">
<path fill-rule="evenodd" clip-rule="evenodd" d="M7.42456 2.52513C7.59404 2.69461 7.74251 2.87715 7.86996 3.06951C7.88237 3.08824 7.90887 3.09107 7.92476 3.07518C7.93852 3.06141 7.96085 3.06141 7.97462 3.07518L8.23701 3.33757C8.4489 3.54947 8.81427 3.46708 8.96358 3.20726C9.1141 2.94533 9.30129 2.69871 9.52513 2.47487C10.892 1.10804 13.108 1.10804 14.4749 2.47487C15.8417 3.84171 15.8417 6.05779 14.4749 7.42462C14.4609 7.43841 14.4609 7.46089 14.4747 7.47475L14.7003 7.70031C14.8381 7.83807 14.8381 8.06143 14.7003 8.19919L9.43935 13.4601C9.35847 13.541 9.22732 13.541 9.14643 13.4601C9.06554 13.3793 8.9344 13.3793 8.85351 13.4601L8.82838 13.4853C8.73362 13.58 8.57997 13.58 8.48521 13.4853L3.02487 8.02493C3.0111 8.01116 3.0111 7.98884 3.02487 7.97507C3.04076 7.95918 3.03793 7.93269 3.01919 7.92027C2.82683 7.79282 2.6443 7.64436 2.47481 7.47487C1.10798 6.10804 1.10798 3.89196 2.47481 2.52513C3.84165 1.15829 6.05773 1.15829 7.42456 2.52513Z" fill="white"/>
<path d="M9.52513 2.47487L9.17157 2.12132L9.52513 2.47487ZM9.43935 13.4601L9.79291 13.8137L9.43935 13.4601ZM14.7003 8.19919L14.3468 7.84564L14.7003 8.19919ZM3.01919 7.92027L3.29536 7.50346L3.01919 7.92027ZM7.86996 3.06951L7.45315 3.34567L7.86996 3.06951ZM8.28677 2.79334C8.14098 2.57329 7.97135 2.36481 7.77811 2.17157L7.07101 2.87868C7.21674 3.02441 7.34404 3.181 7.45315 3.34567L8.28677 2.79334ZM8.59056 2.98402L8.32817 2.72163L7.62106 3.42874L7.88345 3.69113L8.59056 2.98402ZM9.17157 2.12132C8.91631 2.37658 8.70233 2.65837 8.53006 2.95813L9.39709 3.45639C9.52588 3.23229 9.68626 3.02085 9.87868 2.82843L9.17157 2.12132ZM14.8284 2.12132C13.2663 0.559223 10.7337 0.559223 9.17157 2.12132L9.87868 2.82843C11.0503 1.65685 12.9497 1.65685 14.1213 2.82843L14.8284 2.12132ZM14.8284 7.77817C16.3905 6.21608 16.3905 3.68342 14.8284 2.12132L14.1213 2.82843C15.2929 4 15.2929 5.89949 14.1213 7.07107L14.8284 7.77817ZM15.0539 7.34675L14.8283 7.1212L14.1212 7.8283L14.3468 8.05386L15.0539 7.34675ZM9.79291 13.8137L15.0539 8.55274L14.3468 7.84564L9.0858 13.1066L9.79291 13.8137ZM9.18193 13.8388L9.20706 13.8137L8.49995 13.1066L8.47483 13.1317L9.18193 13.8388ZM2.67132 8.37848L8.13165 13.8388L8.83876 13.1317L3.37842 7.67138L2.67132 8.37848ZM2.12126 7.82843C2.31449 8.02166 2.52298 8.19129 2.74302 8.33709L3.29536 7.50346C3.13069 7.39436 2.9741 7.26705 2.82837 7.12132L2.12126 7.82843ZM2.12126 2.17157C0.559162 3.73367 0.559162 6.26633 2.12126 7.82843L2.82837 7.12132C1.65679 5.94975 1.65679 4.05025 2.82837 2.87868L2.12126 2.17157ZM7.77811 2.17157C6.21602 0.609476 3.68336 0.609476 2.12126 2.17157L2.82837 2.87868C3.99994 1.70711 5.89943 1.70711 7.07101 2.87868L7.77811 2.17157ZM3.37842 7.67138C3.55992 7.85287 3.55992 8.14713 3.37842 8.32862L2.67132 7.62152C2.46229 7.83055 2.46229 8.16945 2.67132 8.37848L3.37842 7.67138ZM9.49998 13.1066C9.22383 12.8304 8.77611 12.8304 8.49995 13.1066L9.20706 13.8137C9.09269 13.9281 8.90725 13.9281 8.79288 13.8137L9.49998 13.1066ZM9.0858 13.1066C9.20017 12.9922 9.38561 12.9922 9.49998 13.1066L8.79288 13.8137C9.06903 14.0898 9.51676 14.0898 9.79291 13.8137L9.0858 13.1066ZM14.3468 8.05386C14.2893 7.99636 14.2893 7.90314 14.3468 7.84564L15.0539 8.55274C15.3869 8.21972 15.3869 7.67978 15.0539 7.34675L14.3468 8.05386ZM7.88345 3.69113C8.37389 4.18156 9.11755 3.94282 9.39709 3.45639L8.53006 2.95813C8.53109 2.95634 8.53165 2.95635 8.53033 2.95727C8.5286 2.95848 8.52727 2.95871 8.52816 2.95853C8.52917 2.95834 8.53678 2.95704 8.54988 2.96059C8.56453 2.96457 8.57959 2.97305 8.59056 2.98402L7.88345 3.69113ZM14.1231 7.06932C13.9122 7.27808 13.9114 7.6185 14.1212 7.8283L14.8283 7.1212C15.0104 7.30329 15.0097 7.59874 14.8267 7.77993L14.1231 7.06932ZM3.37842 8.32862C3.62096 8.08609 3.5739 7.68802 3.29536 7.50346L2.74302 8.33709C2.50195 8.17735 2.46056 7.83227 2.67132 7.62152L3.37842 8.32862ZM8.27831 3.42874C8.09682 3.61023 7.80256 3.61023 7.62106 3.42874L8.32817 2.72163C8.11914 2.5126 7.78023 2.5126 7.5712 2.72163L8.27831 3.42874ZM8.47483 13.1317C8.57532 13.0312 8.73826 13.0312 8.83876 13.1317L8.13165 13.8388C8.42168 14.1288 8.89191 14.1288 9.18193 13.8388L8.47483 13.1317ZM7.45315 3.34567C7.6377 3.62422 8.03577 3.67127 8.27831 3.42874L7.5712 2.72163C7.78196 2.51087 8.12704 2.55226 8.28677 2.79334L7.45315 3.34567Z" fill="#596787"/>
</g>
</svg>
